# AST/ASF file generated using VICON BodyLanguage
# -----------------------------------------------
:version 1.10
:name VICON
:units
  mass 1.0
  length 0.45
  angle deg
:documentation
   .ast/.asf automatically generated from VICON data using
   VICON BodyBuilder and BodyLanguage model FoxedUp or BRILLIANT.MOD
:root
   order TX TY TZ RX RY RZ
   axis XYZ
   position 0 0 0  
   orientation 0 0 0 
:bonedata
  begin
     id 1 
     name lhipjoint
     direction 0.584852 -0.759097 0.285867 
     length 2.43633 
     axis 0 0 0  XYZ
  end
  begin
     id 2 
     name lfemur
     direction 0.34202 -0.939693 0  
     length 7.14704  
     axis 0 0 20  XYZ
    dof rx ry rz
    limits (-160.0 20.0)
           (-70.0 70.0)
           (-60.0 70.0)
  end
  begin
     id 3 
     name ltibia
     direction 0.342022 -0.939692 0   
     length 7.68483   
     axis 0 0 20   XYZ
    dof rx
    limits (-10.0 170.0)
  end
  begin
     id 4 
     name lfoot
     direction 0.0999605 -0.274639 0.956337   
     length 2.40452   
     axis -90 7.62852e-016 20   XYZ
    dof rx rz
    limits (-45.0 90.0)
           (-70.0 20.0)
  end
  begin
     id 5 
     name ltoes
     direction 1.53468e-011 -4.21881e-011 1   
     length 1.19837   
     axis -90 7.62852e-016 20   XYZ
    dof rx
    limits (-90.0 20.0)
  end
  begin
     id 6 
     name rhipjoint
     direction -0.569886 -0.769002 0.289597   
     length 2.40495  
     axis 0 0 0  XYZ 
  end
  begin
     id 7 
     name rfemur
     direction -0.34202 -0.939693 0   
     length 7.45086   
     axis 0 0 -20   XYZ
    dof rx ry rz
    limits (-160.0 20.0)
           (-70.0 70.0)
           (-70.0 60.0)
  end
  begin
     id 8 
     name rtibia
     direction -0.34202 -0.939693 0   
     length 7.76831   
     axis 0 0 -20   XYZ
    dof rx
    limits (-10.0 170.0)
 end
 begin
     id 9 
     name rfoot
     direction -0.0798572 -0.219406 0.97236   
     length 2.35911  
     axis -90 -7.62852e-016 -20   XYZ
    dof rx rz
    limits (-45.0 90.0)
           (-20.0 70.0)
  end
  begin
     id 10 
     name rtoes
     direction -1.53469e-011 -4.21728e-011 1   
     length 1.18261   
     axis -90 -7.62852e-016 -20   XYZ
    dof rx
    limits (-90.0 20.0)
  end
  begin
     id 11 
     name lowerback
     direction 0.0242088 0.999437 0.0232389   
     length 2.1561   
     axis 0 0 0   XYZ
    dof rx ry rz
    limits (-20.0 45.0)
           (-30.0 30.0)
           (-30.0 30.0)
  end
  begin
     id 12 
     name upperback
     direction -0.0356893 0.999013 -0.0264323   
     length 2.14431   
     axis 0 0 0   XYZ
    dof rx ry rz
    limits (-20.0 45.0)
           (-30.0 30.0)
           (-30.0 30.0)
  end
  begin
     id 13 
     name thorax
     direction -0.0472163 0.998194 -0.0371284   
     length 2.16169   
     axis 0 0 0   XYZ
    dof rx ry rz
    limits (-20.0 45.0)
           (-30.0 30.0)
           (-30.0 30.0)
  end
  begin
     id 14 
     name lowerneck
     direction 0.00863244 0.999921 0.00911972   
     length 1.58651   
     axis 0 0 0   XYZ
    dof rx ry rz
    limits (-20.0 45.0)
           (-30.0 30.0)
           (-30.0 30.0)
  end
  begin
     id 15 
     name upperneck
     direction 0.149523 0.979068 -0.138086   
     length 1.57486   
     axis 0 0 0   XYZ
    dof rx ry rz
    limits (-20.0 45.0)
           (-30.0 30.0)
           (-30.0 30.0)
  end
  begin
     id 16
     name head
     direction 0.0445219 0.997708 -0.0509576  
     length 1.6019  
     axis 0 0 0   XYZ
    dof rx ry rz
    limits (-20.0 45.0)
           (-30.0 30.0)
           (-30.0 30.0)
  end
  begin
     id 17 
     name lclavicle
     direction 0.911271 0.381667 -0.154644  
     length 3.80848  
     axis 0 0 0   XYZ
    dof ry rz
    limits (-20.0 10.0)
           (0.0 20.0)
  end
  begin
     id 18 
     name lhumerus
     direction 1 -4.49003e-011 2.1308e-027   
     length 5.19069   
     axis 180 -30 -90   XYZ
    dof rx ry rz
    limits (-60.0 90.0)
           (-90.0 90.0)
           (-90.0 90.0)
  end
  begin
     id 19
     name lradius
     direction 1 -4.48914e-011 4.01554e-027   
     length 3.30016   
     axis 180 -30 -90   XYZ
    dof rx
    limits (-10.0 170.0)
  end
  begin
     id 20
     name lwrist
     direction 1 -4.49003e-011 1.1934e-026   
     length 1.65008   
     axis -8.46377e-015 90 90   XYZ
    dof ry
    limits (-180.0 0.0)
 end
  begin
     id 21 
     name lhand
     direction 1 -4.49034e-011 2.38659e-026   
     length 0.707698   
     axis -1.52313e-014 90 90   XYZ
    dof rx rz
    limits (-90.0 90.0)
           (-45.0 45.0)
  end
  begin
     id 22 
     name lfingers
     direction 1 -4.48691e-011 4.77775e-026   
     length 0.570564   
     axis -3.04623e-014 90 90   XYZ
    dof rx
    limits (0.0 90.0)
  end
  begin
     id 23
     name lthumb
     direction 0.707107 -6.34832e-011 0.707107   
     length 0.819219   
     axis -90 45 -1.62303e-014   XYZ
    dof rx rz
    limits (-45.0 45.0)
           (-45.0 45.0)
  end
  begin
     id 24 
     name rclavicle
     direction -0.815579 0.573708 -0.0754329   
     length 3.54371  
     axis 0 0 0   XYZ 
    dof ry rz
    limits (-10.0 20.0)
           (-20.0 0.0)
  end
  begin
     id 25 
     name rhumerus
     direction -1 -4.48956e-011 3.05351e-028  
     length 5.23924   
     axis 180 30 90   XYZ
    dof rx ry rz
    limits (-90.0 60.0)
           (-90.0 90.0)
           (-90.0 90.0)
  end
  begin
     id 26 
     name rradius
     direction -1 -4.49013e-011 3.53849e-027   
     length 3.32953   
     axis 180 30 90   XYZ
    dof rx
    limits (-10.0 170.0)
  end
  begin
     id 27 
     name rwrist
     direction -1 -4.48901e-011 1.19374e-026   
     length 1.66477   
     axis -8.46377e-015 -90 -90   XYZ
    dof ry
    limits (-180.0 0.0)
  end
  begin
     id 28
     name rhand
     direction -1 -4.48877e-011 2.38764e-026   
     length 0.607414   
     axis -1.52313e-014 -90 -90   XYZ
    dof rx rz
    limits (-90.0 90.0)
           (-45.0 45.0)
  end
  begin
     id 29
     name rfingers
     direction -1 -4.48882e-011 4.77521e-026   
     length 0.489712   
     axis -3.04623e-014 -90 -90   XYZ
    dof rx
    limits (0.0 90.0)
  end
  begin
     id 30
     name rthumb
     direction -0.707107 -6.34974e-011 0.707107   
     length 0.703132   
     axis -90 -45 1.62303e-014   XYZ
    dof rx rz
    limits (-45.0 45.0)
           (-45.0 45.0)
  end
:hierarchy
  begin
    root lhipjoint rhipjoint lowerback
    lhipjoint lfemur
    lfemur ltibia
    ltibia lfoot
    lfoot ltoes
    rhipjoint rfemur
    rfemur rtibia
    rtibia rfoot
    rfoot rtoes
    lowerback upperback
    upperback thorax
    thorax lowerneck lclavicle rclavicle
    lowerneck upperneck
    upperneck head
    lclavicle lhumerus
    lhumerus lradius
    lradius lwrist
    lwrist lhand lthumb
    lhand lfingers
    rclavicle rhumerus
    rhumerus rradius
    rradius rwrist
    rwrist rhand rthumb
    rhand rfingers
  end

#!OML:ASF E:\VariousWalksJay\Project 1\Capture day 1\Session 1\Actor2.ASF
:FULLY-SPECIFIED
:DEGREES
41
root 28.6751 14.8592 -28.4783 18.1607 -43.9566 -0.521972
lowerback 40.8547 -3.96554 4.74607
upperback 15.8165 -4.19804 -1.99768
thorax -2.33404 -2.07953 -3.01805
lowerneck -4.2548 3.05612 3.18775
upperneck -24.3666 3.53506 -2.29489
head -6.62782 1.41024 -1.41257
rclavicle 7.87187e-014 -9.6013e-014
rhumerus -14.9634 25.7292 -79.9051
rradius 109.021
rwrist 3.1214
rhand -33.3027 -9.36451
rfingers 7.12502
rthumb -6.50646 -39.2446
lclavicle 7.87187e-014 -9.6013e-014
lhumerus 57.5701 -9.43293 46.5343
lradius 76.3924
lwrist 48.7467
lhand -34.0377 11.5673
lfingers 7.12502
lthumb -7.21596 41.4242
rfemur -67.8805 1.01752 22.0118
rtibia 77.952
rfoot -27.7079 -11.533
rtoes -10.5319
lfemur -67.9612 5.51975 -28.0984
ltibia 74.4617
lfoot -25.0497 13.3038
ltoes -6.36163
42
root 28.6748 14.8639 -28.4703 18.1327 -43.9416 -0.448646
lowerback 40.8216 -3.9716 4.7423
upperback 15.8174 -4.20651 -1.99225
thorax -2.3236 -2.0833 -3.00869
lowerneck -4.26503 3.06186 3.16676
upperneck -24.3332 3.54144 -2.30564
head -6.61507 1.41708 -1.41213
rclavicle 2.22639e-014 4.29375e-014
rhumerus -14.9183 25.7567 -79.8584
rradius 108.983
rwrist 3.06308
rhand -33.308 -9.36022
rfingers 7.12502
rthumb -6.51158 -39.2401
lclavicle 2.22639e-014 4.29375e-014
lhumerus 57.6103 -9.35792 46.4244
lradius 76.3423
lwrist 48.8487
lhand -34.0461 11.5646
lfingers 7.12502
lthumb -7.22402 41.4213
rfemur -67.8712 0.942874 21.9493
rtibia 77.9382
rfoot -27.6914 -11.4917
rtoes -10.5814
lfemur -67.8953 5.31315 -28.0823
ltibia 74.3947
lfoot -25.0539 13.4397
ltoes -6.29421
43
root 28.6747 14.868 -28.4625 18.1038 -43.9173 -0.36803
lowerback 40.7829 -3.97413 4.72902
upperback 15.8186 -4.21339 -1.97679
thorax -2.30995 -2.08714 -2.98475
lowerneck -4.2827 3.06793 3.14685
upperneck -24.3 3.54705 -2.32049
head -6.60103 1.42363 -1.41302
rclavicle 3.26007e-014 3.12092e-014
rhumerus -14.8615 25.7837 -79.7922
rradius 108.941
rwrist 3.0008
rhand -33.312 -9.35835
rfingers 7.12502
rthumb -6.51542 -39.2381
lclavicle 3.26007e-014 3.12092e-014
lhumerus 57.6537 -9.27706 46.3244
lradius 76.2945
lwrist 48.9517
lhand -34.0554 11.5493
lfingers 7.12502
lthumb -7.23306 41.4057
rfemur -67.8719 0.86281 21.8825
rtibia 77.934
rfoot -27.677 -11.4597
rtoes -10.6412
lfemur -67.838 5.09211 -28.0676
ltibia 74.3336
lfoot -25.0572 13.5763
ltoes -6.2226
44
root 28.6746 14.8715 -28.4548 18.075 -43.8842 -0.281727
lowerback 40.7402 -3.97518 4.71007
upperback 15.8194 -4.2199 -1.95442
thorax -2.29462 -2.09132 -2.95096
lowerneck -4.30629 3.07417 3.13091
upperneck -24.2673 3.55181 -2.33922
head -6.58605 1.42957 -1.4157
rclavicle -5.56597e-014 6.02318e-014
rhumerus -14.795 25.8092 -79.71
rradius 108.898
rwrist 2.93476
rhand -33.3146 -9.35894
rfingers 7.12502
rthumb -6.51796 -39.2386
lclavicle -5.56597e-014 6.02318e-014
lhumerus 57.6995 -9.1912 46.2337
lradius 76.2492
lwrist 49.0552
lhand -34.0635 11.5246
lfingers 7.12502
lthumb -7.24089 41.3807
rfemur -67.8817 0.778257 21.8123
rtibia 77.9382
rfoot -27.6651 -11.437
rtoes -10.7127
lfemur -67.789 4.85881 -28.0541
ltibia 74.2783
lfoot -25.0598 13.7126
ltoes -6.14768
45
root 28.6746 14.8745 -28.4471 18.0464 -43.8445 -0.192419
lowerback 40.6963 -3.97684 4.69002
upperback 15.8196 -4.22716 -1.92943
thorax -2.27938 -2.09598 -2.91363
lowerneck -4.33368 3.08039 3.12143
upperneck -24.2357 3.55596 -2.36029
head -6.57064 1.4347 -1.42013
rclavicle 1.82882e-014 -8.88567e-014
rhumerus -14.721 25.8323 -79.6177
rradius 108.854
rwrist 2.86657
rhand -33.3156 -9.3593
rfingers 7.12502
rthumb -6.51888 -39.239
lclavicle 1.82882e-014 -8.88567e-014
lhumerus 57.7471 -9.1011 46.1472
lradius 76.2072
lwrist 49.1608
lhand -34.0695 11.4958
lfingers 7.12502
lthumb -7.24668 41.3517
rfemur -67.8969 0.691432 21.7396
rtibia 77.9487
rfoot -27.6562 -11.4223
rtoes -10.7939
lfemur -67.7457 4.61664 -28.0409
ltibia 74.2283
lfoot -25.0624 13.8486
ltoes -6.07088
46
root 28.6748 14.8772 -28.4391 18.0175 -43.8025 -0.10428
lowerback 40.6556 -3.98064 4.67349
upperback 15.819 -4.2356 -1.90633
thorax -2.26631 -2.10096 -2.87948
lowerneck -4.3621 3.08655 3.12014
upperneck -24.2057 3.55991 -2.38204
head -6.55543 1.43895 -1.42616
rclavicle 4.53229e-014 -5.92378e-014
rhumerus -14.6418 25.8529 -79.5234
rradius 108.808
rwrist 2.79922
rhand -33.3159 -9.35844
rfingers 7.12502
rthumb -6.51914 -39.2381
lclavicle 4.53229e-014 -5.92378e-014
lhumerus 57.7958 -9.00748 46.0562
lradius 76.1702
lwrist 49.2725
lhand -34.0739 11.4688
lfingers 7.12502
lthumb -7.25093 41.3246
rfemur -67.9114 0.606194 21.6659
rtibia 77.962
rfoot -27.6505 -11.4145
rtoes -10.8873
lfemur -67.703 4.3709 -28.0266
ltibia 74.1825
lfoot -25.0671 13.9844
ltoes -5.99278
47
root 28.6749 14.8799 -28.4306 17.987 -43.7641 -0.0221074
lowerback 40.6231 -3.98646 4.66342
upperback 15.8179 -4.24431 -1.88818
thorax -2.25686 -2.10562 -2.85337
lowerneck -4.38934 3.09253 3.12695
upperneck -24.1779 3.56388 -2.40314
head -6.541 1.44238 -1.43338
rclavicle 6.36111e-015 -1.06549e-013
rhumerus -14.5591 25.8712 -79.4313
rradius 108.761
rwrist 2.73451
rhand -33.3167 -9.3564
rfingers 7.12502
rthumb -6.51997 -39.236
lclavicle 6.36111e-015 -1.06549e-013
lhumerus 57.8452 -8.91062 45.9535
lradius 76.1393
lwrist 49.3952
lhand -34.0792 11.4466
lfingers 7.12502
lthumb -7.25599 41.3021
rfemur -67.9168 0.527343 21.5927
rtibia 77.9742
rfoot -27.6483 -11.4111
rtoes -10.9924
lfemur -67.6538 4.12758 -28.0091
ltibia 74.1394
lfoot -25.0761 14.121
ltoes -5.91347
48
root 28.6751 14.8829 -28.4214 17.9542 -43.7332 0.0507402
lowerback 40.6028 -3.9935 4.66072
upperback 15.8164 -4.25208 -1.87598
thorax -2.25203 -2.10935 -2.83711
lowerneck -4.41399 3.09801 3.14099
upperneck -24.1524 3.5675 -2.42342
head -6.52769 1.44487 -1.44163
rclavicle 4.45278e-014 9.34288e-015
rhumerus -14.4737 25.8875 -79.3441
rradius 108.713
rwrist 2.67457
rhand -33.3188 -9.35396
rfingers 7.12502
rthumb -6.52194 -39.2335
lclavicle 4.45278e-014 9.34288e-015
lhumerus 57.8955 -8.81043 45.8338
lradius 76.1153
lwrist 49.5319
lhand -34.0878 11.433
lfingers 7.12502
lthumb -7.26434 41.2883
rfemur -67.9076 0.458273 21.5211
rtibia 77.9819
rfoot -27.6499 -11.4106
rtoes -11.1086
lfemur -67.5932 3.89095 -27.9872
ltibia 74.0976
lfoot -25.0907 14.2592
ltoes -5.83287
49
root 28.6754 14.8862 -28.4113 17.9183 -43.7132 0.112627
lowerback 40.5968 -4.00004 4.6639
upperback 15.8151 -4.25742 -1.86912
thorax -2.25167 -2.11161 -2.82976
lowerneck -4.43584 3.10293 3.15978
upperneck -24.1296 3.57065 -2.4427
head -6.51566 1.44658 -1.45041
rclavicle -8.34896e-014 5.48646e-014
rhumerus -14.3853 25.9023 -79.2606
rradius 108.664
rwrist 2.61987
rhand -33.3231 -9.35258
rfingers 7.12502
rthumb -6.52615 -39.232
lclavicle -8.34896e-014 5.48646e-014
lhumerus 57.9464 -8.70599 45.6993
lradius 76.0977
lwrist 49.6824
lhand -34.0995 11.4294
lfingers 7.12502
lthumb -7.27565 41.2843
rfemur -67.8803 0.401319 21.4512
rtibia 77.9828
rfoot -27.6547 -11.4117
rtoes -11.2368
lfemur -67.5181 3.66398 -27.9606
ltibia 74.0551
lfoot -25.1113 14.3994
ltoes -5.75074
